<svg width="192" height="50" viewBox="0 0 192 50" fill="none" xmlns="http://www.w3.org/2000/svg">
<mask id="mask0_5_2365" style="mask-type:luminance" maskUnits="userSpaceOnUse" x="0" y="0" width="192" height="50">
<path d="M191.953 0H0.953369V49.7022H191.953V0Z" fill="white"/>
</mask>
<g mask="url(#mask0_5_2365)">
<path d="M117.151 46.0383H118.356V47.5647C118.356 48.208 117.788 48.2501 117.016 48.2501C115.682 48.2501 115.353 47.6069 115.353 46.1359C115.353 44.6476 115.684 44.0233 117.016 44.0233C117.423 44.0191 117.83 44.0504 118.232 44.1168L118.19 44.4831C117.859 44.4398 117.525 44.4177 117.191 44.4169C115.92 44.4169 115.817 45.0205 115.817 46.1392C115.817 47.2579 115.925 47.864 117.191 47.864C117.866 47.864 117.902 47.6573 117.902 47.3555V46.4071H117.148L117.151 46.0383Z" fill="#494644"/>
<path d="M119.794 46.1391C119.794 44.6384 120.148 44.0249 121.398 44.0249C122.648 44.0249 123 44.6384 123 46.1391C123 47.6398 122.647 48.2534 121.398 48.2534C120.15 48.2534 119.794 47.6398 119.794 46.1391ZM122.538 46.1391C122.538 45.1246 122.493 44.4119 121.398 44.4119C120.304 44.4119 120.256 45.1246 120.256 46.1391C120.256 47.1537 120.296 47.8664 121.396 47.8664C122.495 47.8664 122.535 47.1512 122.535 46.1391" fill="#494644"/>
<path d="M129.638 47.6093V44.0688H130.059V47.9293C130.059 48.1559 129.944 48.2542 129.777 48.2542C129.61 48.2542 129.496 48.1558 129.371 47.9549L127.333 44.6707V48.2129H126.914V44.3516C126.914 44.1225 127.029 44.0266 127.194 44.0266C127.36 44.0266 127.475 44.1267 127.598 44.3234L129.638 47.6093Z" fill="#494644"/>
<path d="M131.437 48.2114L132.872 44.3377C132.948 44.1293 133.066 44.0276 133.235 44.0276C133.403 44.0276 133.525 44.1285 133.601 44.3377L135.016 48.2114H134.529L134.102 47.0199H132.332L131.904 48.2114H131.437ZM133.972 46.6561L133.218 44.551L132.462 46.6561H133.972Z" fill="#494644"/>
<path d="M138.376 44.4458H137.243V48.2112H136.787V44.4458H135.652V44.0696H138.376V44.4458Z" fill="#494644"/>
<path d="M142.723 46.8718C142.723 47.9674 142.132 48.2527 141.228 48.2527C140.323 48.2527 139.734 47.9674 139.734 46.8718V44.0688H140.187V46.9173C140.187 47.5589 140.481 47.8607 141.228 47.8607C141.974 47.8607 142.269 47.5589 142.269 46.9173V44.0688H142.723V46.8718Z" fill="#494644"/>
<path d="M144.371 48.2113V44.125C144.789 44.0588 145.212 44.0259 145.635 44.0266C146.515 44.0266 147.246 44.192 147.246 45.2553C147.266 45.4033 147.254 45.5538 147.212 45.6971C147.171 45.8405 147.1 45.9737 147.004 46.0882C146.908 46.2028 146.79 46.2962 146.656 46.3626C146.523 46.4291 146.376 46.467 146.227 46.4741L147.242 48.2104H146.709L145.748 46.5113H145.683C145.458 46.5113 145.032 46.4939 144.827 46.4823V48.2096L144.371 48.2113ZM144.826 46.0995C145.094 46.1279 145.364 46.1403 145.635 46.1367C146.369 46.1367 146.792 45.9548 146.792 45.2553C146.792 44.6385 146.488 44.3979 145.658 44.3979C145.381 44.399 145.105 44.4172 144.831 44.4524L144.826 46.0995Z" fill="#494644"/>
<path d="M148.554 48.2114L149.989 44.3377C150.066 44.1293 150.183 44.0276 150.352 44.0276C150.52 44.0276 150.644 44.1285 150.718 44.3377L152.133 48.2114H151.647L151.219 47.0199H149.452L149.025 48.2114H148.554ZM151.091 46.6561L150.335 44.551L149.579 46.6561H151.091Z" fill="#494644"/>
<path d="M155.747 48.2055C155.416 48.2179 155.093 48.2221 154.804 48.2221C154.101 48.2221 153.441 48.1857 153.441 47.3084V44.0688H153.898V47.0521C153.898 47.7028 154.021 47.8401 154.787 47.8401H155.747V48.2055Z" fill="#494644"/>
<path d="M159.166 46.222C159.166 46.0619 159.214 45.9054 159.303 45.7724C159.392 45.6394 159.518 45.5357 159.666 45.4746C159.814 45.4135 159.977 45.3977 160.134 45.429C160.291 45.4604 160.435 45.5377 160.548 45.651C160.661 45.7643 160.738 45.9086 160.769 46.0657C160.8 46.2228 160.784 46.3855 160.723 46.5333C160.661 46.6812 160.557 46.8075 160.424 46.8963C160.291 46.9851 160.135 47.0324 159.974 47.0323C159.868 47.0322 159.763 47.0111 159.665 46.9703C159.567 46.9296 159.477 46.8699 159.402 46.7946C159.327 46.7194 159.268 46.6301 159.227 46.5318C159.186 46.4336 159.166 46.3283 159.166 46.222Z" fill="#494644"/>
<path d="M166.323 46.0383H167.528V47.5647C167.528 48.208 166.96 48.2501 166.188 48.2501C164.854 48.2501 164.525 47.6069 164.525 46.1359C164.525 44.6476 164.856 44.0233 166.188 44.0233C166.595 44.0191 167.002 44.0504 167.404 44.1168L167.362 44.4831C167.032 44.4388 166.699 44.4156 166.365 44.4136C165.095 44.4136 164.992 45.0172 164.992 46.1359C164.992 47.2546 165.1 47.8607 166.365 47.8607C167.041 47.8607 167.077 47.654 167.077 47.3522V46.4071H166.323V46.0383Z" fill="#494644"/>
<path d="M168.968 46.1391C168.968 44.6384 169.322 44.0249 170.572 44.0249C171.822 44.0249 172.174 44.6384 172.174 46.1391C172.174 47.6398 171.821 48.2534 170.572 48.2534C169.324 48.2534 168.968 47.6398 168.968 46.1391ZM171.711 46.1391C171.711 45.1246 171.667 44.4119 170.572 44.4119C169.477 44.4119 169.433 45.1246 169.433 46.1391C169.433 47.1537 169.472 47.8664 170.572 47.8664C171.672 47.8664 171.711 47.1512 171.711 46.1391Z" fill="#494644"/>
<path d="M176.535 48.2113H176.078V44.125C176.497 44.0588 176.921 44.0259 177.345 44.0266C178.23 44.0266 178.956 44.2052 178.956 45.2743C178.956 46.3203 178.31 46.5468 177.393 46.5468C177.166 46.5468 176.741 46.5295 176.536 46.5195L176.535 48.2113ZM176.535 46.1367C176.804 46.1652 177.074 46.1776 177.344 46.1739C178.083 46.1739 178.502 45.9953 178.502 45.2743C178.502 44.6525 178.201 44.4004 177.367 44.4004C177.091 44.4008 176.814 44.419 176.54 44.4549L176.535 46.1367Z" fill="#494644"/>
<path d="M183.358 46.8718C183.358 47.9674 182.766 48.2527 181.861 48.2527C180.956 48.2527 180.368 47.9674 180.368 46.8718V44.0688H180.82V46.9173C180.82 47.5589 181.114 47.8607 181.861 47.8607C182.608 47.8607 182.901 47.5606 182.901 46.9173V44.0688H183.356L183.358 46.8718Z" fill="#494644"/>
<path d="M185.005 48.2113V44.125C185.423 44.0588 185.846 44.0259 186.269 44.0266C187.149 44.0266 187.88 44.192 187.88 45.2553C187.899 45.4033 187.888 45.5538 187.846 45.6971C187.804 45.8405 187.733 45.9737 187.638 46.0882C187.542 46.2028 187.423 46.2962 187.29 46.3626C187.156 46.4291 187.01 46.467 186.861 46.4741L187.875 48.2104H187.342L186.381 46.5113H186.317C186.091 46.5113 185.665 46.4939 185.46 46.4823V48.2096L185.005 48.2113ZM185.459 46.0995C185.728 46.1279 185.998 46.1403 186.268 46.1367C187.002 46.1367 187.426 45.9548 187.426 45.2553C187.426 44.6385 187.121 44.3979 186.291 44.3979C186.015 44.399 185.739 44.4172 185.464 44.4524L185.459 46.0995Z" fill="#494644"/>
<path d="M191.743 44.44H190.704C189.941 44.44 189.817 44.5772 189.817 45.2329V45.9159H191.657V46.2871H189.814V47.0511C189.814 47.7051 189.939 47.8391 190.702 47.8391H191.74V48.2021C191.409 48.2161 191.036 48.2211 190.719 48.2211C190.019 48.2211 189.358 48.1864 189.358 47.3074V44.9749C189.358 44.0976 190.019 44.0571 190.719 44.0571C190.984 44.0571 191.399 44.0687 191.74 44.0819L191.743 44.44Z" fill="#494644"/>
<path d="M78.444 25.5302H88.0271V37.0547C86.6527 38.0693 85.1146 38.8409 83.4795 39.336C81.8207 39.8241 80.0995 40.0672 78.3705 40.0578C76.2447 40.0872 74.1316 39.7251 72.1369 38.9895C70.3615 38.3301 68.7382 37.3174 67.3652 36.0129C66.0396 34.7368 64.9973 33.1961 64.3059 31.4909C63.5749 29.6755 63.2096 27.7336 63.231 25.7766C63.2058 23.8128 63.5523 21.8619 64.2522 20.0268C64.9031 18.3365 65.903 16.8025 67.1866 15.5246C68.5038 14.2367 70.0725 13.2344 71.7946 12.5803C73.7275 11.8518 75.78 11.4928 77.8454 11.5219C78.9296 11.5159 80.0121 11.6095 81.0792 11.8014C82.0246 11.9721 82.9521 12.23 83.8499 12.572C84.6631 12.8816 85.4436 13.271 86.18 13.7345C86.8648 14.1689 87.5085 14.6648 88.1032 15.2162L86.4288 17.7951C86.3231 17.9825 86.1796 18.1459 86.0076 18.2751C85.8355 18.4043 85.6386 18.4965 85.4292 18.5459C84.957 18.6228 84.4735 18.5125 84.0814 18.2383C83.619 17.9555 83.167 17.702 82.7254 17.4776C82.2688 17.2476 81.796 17.0514 81.3107 16.8906C80.7775 16.7157 80.2304 16.5868 79.6752 16.5053C78.9998 16.4097 78.3183 16.3646 77.6362 16.3705C76.4287 16.353 75.2303 16.5826 74.1147 17.0452C73.0905 17.4733 72.1736 18.1227 71.43 18.9469C70.6689 19.8098 70.0898 20.8174 69.7275 21.9095C69.3153 23.1567 69.1138 24.464 69.1313 25.7774C69.1092 27.1805 69.3305 28.5767 69.7854 29.9042C70.1781 31.0458 70.8072 32.0916 71.6317 32.9734C72.4331 33.8097 73.4091 34.459 74.4901 34.8752C76.4696 35.5935 78.6147 35.7239 80.6666 35.2505C81.3973 35.0627 82.1092 34.8081 82.7932 34.4899V29.8017H79.6372C79.3179 29.8202 79.004 29.7134 78.7624 29.504C78.6583 29.4071 78.5762 29.2892 78.5214 29.158C78.4667 29.0268 78.4406 28.8854 78.4449 28.7433L78.444 25.5302Z" fill="#494644"/>
<path d="M110.557 35.0174C109.273 37.2422 107.217 38.9183 104.779 39.7273C102.341 40.5363 99.6904 40.4221 97.331 39.4062C94.9716 38.3903 93.0673 36.5435 91.9796 34.2164C90.8919 31.8892 90.6965 29.2437 91.4304 26.782C92.8154 22.2799 100.278 22.6247 100.743 26.9739C100.251 26.694 99.6937 26.5509 99.128 26.5595C98.5623 26.5681 98.0092 26.7279 97.5262 27.0225C97.0431 27.3171 96.6478 27.7357 96.3812 28.2347C96.1147 28.7338 95.9866 29.2951 96.0103 29.8604C95.9663 30.606 96.0759 31.3527 96.3323 32.0543C96.5886 32.7558 96.9863 33.3973 97.5006 33.9389C98.0149 34.4806 98.6349 34.9109 99.3222 35.2032C100.01 35.4956 100.75 35.6437 101.497 35.6384C102.243 35.6331 102.981 35.4746 103.664 35.1726C104.348 34.8706 104.961 34.4315 105.468 33.8827C105.975 33.3338 106.363 32.6868 106.61 31.9817C106.856 31.2766 106.955 30.5284 106.901 29.7835C106.901 25.8196 103.86 23.4342 100.286 24.1609C98.7835 22.3526 95.5902 21.8913 93.3578 23.2374C94.3205 22.027 95.5435 21.0491 96.936 20.3763C98.3285 19.7036 99.8548 19.3532 101.401 19.3512C103.243 19.3354 105.055 19.806 106.656 20.7156C108.257 21.6252 109.59 22.9414 110.519 24.5311C111.448 26.1209 111.941 27.9278 111.947 29.7691C111.954 31.6105 111.474 33.4209 110.557 35.0174Z" fill="#494644"/>
<path d="M124.839 11.6186C126.515 11.5856 128.187 11.8126 129.793 12.2917C131.056 12.6704 132.226 13.3095 133.227 14.1678C134.11 14.9476 134.793 15.9278 135.219 17.0262C135.657 18.1745 135.875 19.3948 135.863 20.6237C135.878 21.9123 135.65 23.1921 135.19 24.3958C134.751 25.5235 134.052 26.5321 133.151 27.3402C132.149 28.2118 130.975 28.8636 129.706 29.2535C128.129 29.7371 126.486 29.9676 124.838 29.9364H121.183V39.5377H115.41V11.6186H124.839ZM124.839 25.5095C126.647 25.5095 127.972 25.0732 128.813 24.2006C129.248 23.7166 129.584 23.1513 129.8 22.5372C130.016 21.923 130.109 21.2722 130.073 20.6221C130.081 19.9768 129.973 19.3352 129.755 18.7278C129.553 18.1719 129.224 17.6712 128.793 17.2659C128.326 16.8396 127.771 16.5209 127.167 16.3324C126.414 16.0986 125.628 15.9869 124.839 16.0017H121.183V25.5104L124.839 25.5095Z" fill="#494644"/>
<path d="M156.182 19.696V39.5402H152.911C152.619 39.5659 152.327 39.4872 152.087 39.3181C151.848 39.149 151.676 38.9005 151.602 38.6166L151.255 37.2317C150.866 37.6085 150.455 37.9619 150.024 38.29C149.601 38.6107 149.147 38.8877 148.668 39.1169C148.171 39.3537 147.648 39.5342 147.111 39.6551C146.513 39.788 145.903 39.853 145.291 39.8486C144.304 39.8667 143.324 39.6766 142.415 39.2905C141.602 38.9387 140.88 38.4046 140.306 37.7294C139.723 37.0278 139.284 36.2169 139.017 35.344C138.713 34.3596 138.564 33.3339 138.575 32.3037V19.696H143.885V32.3037C143.828 33.2229 144.097 34.1328 144.646 34.8727C144.928 35.1872 145.279 35.433 145.671 35.5914C146.063 35.7497 146.485 35.8164 146.907 35.7863C147.635 35.7902 148.353 35.6219 149.004 35.2952C149.69 34.9459 150.319 34.4949 150.87 33.9574V19.696H156.182Z" fill="#494644"/>
<path d="M165.554 22.9712C166.097 21.9466 166.836 21.038 167.728 20.2964C168.546 19.6444 169.567 19.2985 170.613 19.3183C171.394 19.2833 172.165 19.5061 172.806 19.9525L172.461 23.8775C172.426 24.0837 172.32 24.2712 172.161 24.4075C171.998 24.5118 171.806 24.5624 171.613 24.5522C171.316 24.5437 171.021 24.5144 170.728 24.4645C170.373 24.4106 170.013 24.383 169.653 24.3818C169.211 24.3737 168.771 24.4454 168.354 24.5935C167.984 24.729 167.642 24.9311 167.345 25.1897C167.034 25.4638 166.765 25.7816 166.546 26.1331C166.292 26.5379 166.071 26.9623 165.885 27.4023V39.5378H160.575V19.7003H163.711C164.105 19.6585 164.501 19.7607 164.826 19.988C165.073 20.2684 165.228 20.618 165.269 20.9893L165.554 22.9712Z" fill="#494644"/>
<path d="M178.851 30.4366C178.872 31.9428 179.435 33.3908 180.437 34.5154C180.905 34.9512 181.454 35.2896 182.054 35.5109C182.654 35.7322 183.291 35.832 183.93 35.8045C184.571 35.8172 185.21 35.7296 185.824 35.5448C186.308 35.3917 186.778 35.1981 187.23 34.966C187.634 34.7544 188 34.5614 188.328 34.3872C188.625 34.2213 188.959 34.1318 189.3 34.1268C189.486 34.1193 189.671 34.1575 189.838 34.2381C190.006 34.3187 190.151 34.4392 190.261 34.589L191.799 36.5122C191.261 37.1439 190.632 37.692 189.933 38.1386C189.269 38.5601 188.559 38.9023 187.816 39.1581C187.098 39.4058 186.357 39.5801 185.603 39.6782C184.889 39.7724 184.169 39.8208 183.449 39.8229C182.126 39.8339 180.812 39.6024 179.572 39.1399C178.394 38.6984 177.324 38.0099 176.435 37.1208C175.508 36.1737 174.79 35.0428 174.328 33.801C173.789 32.3291 173.529 30.77 173.56 29.203C173.55 27.9033 173.774 26.6124 174.221 25.3921C174.64 24.2255 175.296 23.1588 176.149 22.2594C177.002 21.3601 178.032 20.648 179.175 20.1681C180.453 19.6324 181.829 19.3672 183.215 19.3892C184.413 19.3766 185.603 19.5819 186.727 19.9953C187.765 20.379 188.71 20.9794 189.498 21.7564C190.297 22.5623 190.913 23.5303 191.306 24.595C191.754 25.8241 191.973 27.1251 191.95 28.4332C191.954 28.761 191.936 29.0886 191.894 29.4138C191.867 29.6292 191.802 29.8379 191.7 30.0298C191.62 30.1755 191.49 30.2879 191.334 30.3473C191.142 30.4111 190.94 30.4408 190.737 30.435L178.851 30.4366ZM187.202 27.2806C187.203 26.7466 187.129 26.2151 186.981 25.7021C186.839 25.2162 186.599 24.7643 186.276 24.3742C185.947 23.9819 185.533 23.6695 185.065 23.4606C184.512 23.2234 183.915 23.1086 183.314 23.124C182.77 23.0922 182.225 23.171 181.713 23.3558C181.2 23.5406 180.731 23.8274 180.332 24.1989C179.55 25.0506 179.057 26.1288 178.927 27.2781L187.202 27.2806Z" fill="#494644"/>
<path d="M49.789 25.3003L49.5856 24.5999C48.5072 20.8612 46.251 17.5703 43.1524 15.2166C40.0538 12.8628 36.2783 11.5719 32.3873 11.5359C31.5528 11.5348 30.7192 11.5926 29.8928 11.7087C28.4877 11.8932 27.1205 12.2978 25.8412 12.9076C21.1423 15.2227 18.642 20.087 18.4071 27.3773L18.317 30.2969L21.3358 31.1956C23.8134 31.8582 26.3674 32.1918 28.932 32.1878C30.6454 32.1939 32.3551 32.0277 34.0352 31.6917C36.2383 31.312 38.3412 30.4883 40.2161 29.2705C42.0909 28.0528 43.6985 26.4666 44.9412 24.6082L45.0545 25.0307C46.3957 29.9967 45.716 34.7337 43.1983 38.0237C40.9608 40.9457 37.522 42.4886 33.2522 42.4886C33.0215 42.4886 32.79 42.4836 32.5544 42.4745C20.5255 42.0066 8.71491 30.2299 8.25436 18.2597C8.19235 13.1755 9.52108 9.22153 12.2034 6.50536C15.8472 2.81848 21.0737 2.26698 23.8618 2.26698C24.2397 2.26698 24.5596 2.2769 24.8077 2.29096C24.973 2.29937 25.1357 2.24815 25.2664 2.14662C25.3971 2.0451 25.4869 1.90002 25.5196 1.7378V1.7254C25.5546 1.55182 25.5219 1.37145 25.4283 1.22115C25.3347 1.07084 25.1873 0.96196 25.0161 0.916753C22.8507 0.318188 20.6156 0.00956465 18.3691 -0.00103964C13.8489 -0.122918 9.44918 1.46541 6.04918 4.44653C2.71454 7.53643 0.953369 11.9542 0.953369 17.222C0.953369 33.6141 17.0974 49.7011 33.5466 49.7011C39.5048 49.7011 44.2955 47.5133 47.4061 43.3741C50.9036 38.7157 51.7726 32.1291 49.789 25.2978M34.3271 22.2087C35.886 20.1294 38.0957 18.6313 40.6045 17.953C40.9371 17.8674 41.2886 17.8932 41.6052 18.0264C41.9218 18.1596 42.186 18.3929 42.3574 18.6905C42.4953 18.9297 42.567 19.2014 42.5649 19.4776C42.5629 19.7537 42.4872 20.0243 42.3458 20.2615C40.2159 23.8797 36.806 26.1073 32.2096 26.8828C31.0278 27.0774 29.832 27.1734 28.6343 27.1697C27.2174 27.167 25.803 27.0498 24.405 26.8192L23.818 26.7232L23.8767 26.1312C24.3207 21.6316 26.0521 18.5036 29.0196 16.8351C30.8434 15.8754 32.8757 15.3804 34.9365 15.3939L36.6166 15.3575L35.3813 16.4928C35.2738 16.5936 33.21 18.6053 34.3271 22.2087Z" fill="#0E8044"/>
</g>
</svg>
